<?xml version="1.0" encoding="UTF-8" standalone="no"?>
<!DOCTYPE svg PUBLIC "-//W3C//DTD SVG 1.1//EN" "http://www.w3.org/Graphics/SVG/1.1/DTD/svg11.dtd">
<svg version="1.1" xmlns="http://www.w3.org/2000/svg" xmlns:xlink="http://www.w3.org/1999/xlink" preserveAspectRatio="xMidYMid meet" viewBox="0 0 640 640" width="640" height="640"><defs><path d="M378.93 273.21L355.56 335.31L212.63 281.54L247.07 190L332.73 222.23L332.73 182.89L453.63 182.89L453.63 273.21L378.93 273.21Z" id="ckj9TX2aR"></path><path d="M148 76.01L69.53 137.12L170.92 146.23L148 76.01Z" id="b93qL1YqQp"></path></defs><g><g><g><g><filter id="shadow9568731" x="203.63" y="173.89" width="260" height="171.43" filterUnits="userSpaceOnUse" primitiveUnits="userSpaceOnUse"><feFlood></feFlood><feComposite in2="SourceAlpha" operator="in"></feComposite><feGaussianBlur stdDeviation="1"></feGaussianBlur><feOffset dx="1" dy="1" result="afterOffset"></feOffset><feFlood flood-color="#7e1616" flood-opacity="0.5"></feFlood><feComposite in2="afterOffset" operator="in"></feComposite><feMorphology operator="dilate" radius="1"></feMorphology><feComposite in2="SourceAlpha" operator="out"></feComposite></filter><path d="M378.93 273.21L355.56 335.31L212.63 281.54L247.07 190L332.73 222.23L332.73 182.89L453.63 182.89L453.63 273.21L378.93 273.21Z" id="d85y0fhGYu" fill="white" fill-opacity="1" filter="url(#shadow9568731)"></path></g><use xlink:href="#ckj9TX2aR" opacity="1" fill="#ffffff" fill-opacity="1"></use><g><use xlink:href="#ckj9TX2aR" opacity="1" fill-opacity="0" stroke="#1b4d41" stroke-width="1" stroke-opacity="1"></use></g><g><filter id="shadow3159865" x="203.63" y="173.89" width="260" height="171.43" filterUnits="userSpaceOnUse" primitiveUnits="userSpaceOnUse"><feFlood></feFlood><feComposite in2="SourceAlpha" operator="out"></feComposite><feGaussianBlur stdDeviation="1"></feGaussianBlur><feOffset dx="1" dy="1" result="afterOffset"></feOffset><feFlood flood-color="#4a8072" flood-opacity="0.8"></feFlood><feComposite in2="afterOffset" operator="in"></feComposite><feMorphology operator="dilate" radius="1"></feMorphology><feComposite in2="SourceAlpha" operator="in"></feComposite></filter><path d="M378.93 273.21L355.56 335.31L212.63 281.54L247.07 190L332.73 222.23L332.73 182.89L453.63 182.89L453.63 273.21L378.93 273.21Z" id="dvXiQfobE" fill="white" fill-opacity="1" filter="url(#shadow3159865)"></path></g></g><g><g><use xlink:href="#b93qL1YqQp" opacity="1" fill-opacity="0" stroke="#000000" stroke-width="1" stroke-opacity="1"></use></g></g></g></g></svg>